<svg id="Layer_1" data-name="Layer 1" xmlns="http://www.w3.org/2000/svg" xmlns:xlink="http://www.w3.org/1999/xlink" viewBox="0 0 1700.79 1133.86"><defs><style>.cls-1{fill:#6f94b3;}.cls-2{fill:#3f709a;}.cls-3{fill:#b47574;}.cls-4{fill:#b23838;}.cls-5{fill:#0f4c81;}.cls-6{fill:#0b3961;}.cls-7{fill:#082641;}.cls-8{fill:url(#linear-gradient);}.cls-10,.cls-9{fill:none;stroke-miterlimit:10;stroke-width:6.4px;}.cls-9{stroke:#6f94b3;}.cls-10{stroke:#3f709a;}</style><linearGradient id="linear-gradient" x1="357.92" y1="668.98" x2="397.2" y2="668.98" gradientUnits="userSpaceOnUse"><stop offset="0" stop-color="#0b3961"/><stop offset="1" stop-color="#0f4c81"/></linearGradient></defs><title>Hoboken Open Data</title><polygon class="cls-1" points="554.31 918.42 377.56 1020.47 377.56 725.67 554.31 623.62 554.31 918.42"/><polygon class="cls-2" points="377.56 1020.47 200.81 918.42 200.81 623.62 377.56 725.67 377.56 1020.47"/><polygon class="cls-3" points="377.56 725.67 200.81 623.62 377.56 521.58 554.31 623.62 377.56 725.67"/><polygon class="cls-4" points="397.2 464.88 475.76 464.88 554.31 555.59 573.95 566.93 573.95 612.28 377.56 498.9 377.56 453.55 397.2 464.88"/><polygon class="cls-3" points="554.31 578.27 573.95 566.93 554.31 555.59 534.67 566.93 554.31 578.27"/><polygon class="cls-3" points="377.56 476.22 397.2 464.88 377.56 453.55 357.92 464.88 377.56 476.22"/><polygon class="cls-4" points="377.56 476.22 456.12 476.22 534.67 566.93 554.31 578.27 554.31 623.62 357.92 510.24 357.92 464.88 377.56 476.22"/><polygon class="cls-5" points="554.31 555.59 534.67 566.93 456.12 476.22 475.76 464.88 554.31 555.59"/><polygon class="cls-4" points="554.31 623.62 573.95 612.28 573.95 566.93 554.31 578.27 554.31 623.62"/><polygon class="cls-3" points="377.56 476.22 456.12 476.22 475.76 464.88 397.2 464.88 377.56 476.22"/><polygon class="cls-1" points="534.67 566.93 377.56 657.64 377.56 476.22 534.67 385.52 534.67 566.93"/><polygon class="cls-4" points="357.92 464.88 279.37 464.88 200.81 555.59 181.17 566.93 181.17 612.28 377.56 498.9 377.56 453.55 357.92 464.88"/><polygon class="cls-3" points="200.81 578.27 181.17 566.93 200.81 555.59 220.45 566.93 200.81 578.27"/><polygon class="cls-3" points="377.56 476.22 357.92 464.88 377.56 453.55 397.2 464.88 377.56 476.22"/><polygon class="cls-6" points="200.81 555.59 220.45 566.93 299.01 476.22 279.37 464.88 200.81 555.59"/><polygon class="cls-3" points="357.92 464.88 279.37 464.88 299.01 476.22 377.56 476.22 357.92 464.88"/><polygon class="cls-4" points="200.81 623.62 181.17 612.28 181.17 566.93 200.81 578.27 200.81 623.62"/><polygon class="cls-2" points="377.56 657.64 220.45 566.93 220.45 385.52 377.56 476.22 377.56 657.64"/><polygon class="cls-4" points="220.45 566.93 299.01 566.93 377.56 657.64 397.2 668.98 397.2 714.33 200.81 600.95 200.81 555.59 220.45 566.93"/><polygon class="cls-3" points="377.56 680.32 397.2 668.98 377.56 657.64 357.92 668.98 377.56 680.32"/><polygon class="cls-5" points="259.73 566.94 338.29 612.29 338.29 498.91 259.73 453.56 259.73 566.94"/><polygon class="cls-6" points="200.81 578.27 220.45 566.93 200.81 555.59 181.17 566.93 200.81 578.27"/><polygon class="cls-7" points="279.37 578.28 338.29 612.29 338.29 498.91 279.37 464.89 279.37 578.28"/><polygon class="cls-5" points="200.81 578.27 279.37 578.27 357.92 668.98 377.56 680.32 377.56 725.67 181.17 612.28 181.17 566.93 200.81 578.27"/><polygon class="cls-6" points="377.56 657.64 357.92 668.98 279.37 578.27 299.01 566.93 377.56 657.64"/><polygon class="cls-6" points="220.45 566.93 299.01 566.93 279.37 578.27 200.81 578.27 220.45 566.93"/><polygon class="cls-4" points="377.56 725.67 397.2 714.33 397.2 668.98 377.56 680.32 377.56 725.67"/><polygon class="cls-4" points="534.67 566.93 456.12 566.93 377.56 657.64 357.92 668.98 357.92 714.33 554.31 600.95 554.31 555.59 534.67 566.93"/><polygon class="cls-2" points="495.39 566.93 416.84 612.28 416.84 498.9 495.39 453.55 495.39 566.93"/><polygon class="cls-8" points="377.56 680.32 357.92 668.98 377.56 657.64 397.2 668.98 377.56 680.32"/><polygon class="cls-5" points="554.31 578.27 534.67 566.93 554.31 555.59 573.95 566.93 554.31 578.27"/><polygon class="cls-7" points="475.75 578.27 416.84 612.28 416.84 498.9 475.75 464.88 475.75 578.27"/><polygon class="cls-2" points="554.31 578.27 475.76 578.27 397.2 668.98 377.56 680.32 377.56 725.67 573.95 612.28 573.95 566.93 554.31 578.27"/><polygon class="cls-5" points="377.56 657.64 397.2 668.98 475.76 578.27 456.12 566.93 377.56 657.64"/><polygon class="cls-5" points="534.67 566.93 456.12 566.93 475.76 578.27 554.31 578.27 534.67 566.93"/><polygon class="cls-5" points="377.56 725.67 357.92 714.33 357.92 668.98 377.56 680.32 377.56 725.67"/><polygon class="cls-3" points="377.56 476.22 220.45 385.52 377.56 294.81 534.67 385.52 377.56 476.22"/><polygon class="cls-2" points="554.31 374.18 377.56 476.22 377.56 430.87 554.31 328.82 554.31 374.18"/><polygon class="cls-5" points="377.56 476.22 200.81 374.18 200.81 328.82 377.56 430.87 377.56 476.22"/><polygon class="cls-1" points="554.31 328.82 377.56 113.39 377.56 430.87 554.31 328.82"/><polygon class="cls-2" points="200.81 328.82 377.56 113.39 377.56 430.87 200.81 328.82"/><ellipse class="cls-2" cx="465.94" cy="822.04" rx="97.21" ry="56.12" transform="translate(-478.94 814.53) rotate(-60)"/><polyline class="cls-9" points="487.56 753.19 465.94 822.04 431.36 816.81"/><ellipse class="cls-5" cx="289.19" cy="822.04" rx="56.12" ry="97.21" transform="translate(-372.28 254.73) rotate(-30)"/><polyline class="cls-10" points="302 778.16 280.38 822.04 245.81 776.89"/><path class="cls-6" d="M638.5,406.23h29.94c15.38,0,25.82,8.66,25.82,22.42,0,15.72-11.9,22.94-26.18,22.94H654.16v27H638.5Zm15.66,32.9h12c7.24,0,12.36-2.79,12.36-10.18s-5.4-10.26-12-10.26H654.16Z"/><path class="cls-6" d="M703.73,439c0-5.4,0-10.2-.11-14.75h14.76c.2,1.22.39,6.62.39,9.54,2.4-6.21,8.2-10.75,17.44-10.8v14.36c-10.92-.28-17.44,2.66-17.44,17.56v23.69h-15Z"/><path class="cls-6" d="M794.72,451.34c0,16.44-9.84,28.54-27.06,28.54-16.85,0-26.69-12-26.69-28.25,0-16.77,10.14-28.62,27.4-28.62C784.37,423,794.72,434.3,794.72,451.34Zm-38.48.11c0,10.46,4.5,16.66,11.75,16.66s11.46-6.21,11.46-16.57c0-11.37-4.18-16.75-11.67-16.75C760.8,434.79,756.24,440,756.24,451.45Z"/><path class="cls-6" d="M820.62,424.27v53.22c0,15.56-3.1,23-18.07,23-1.32,0-3.33-.1-4.61-.21v-12c.47,0,.95,0,1.4,0,4.87,0,6.24-1.8,6.24-7.72V424.27Zm-15-8.87V402h15V415.4Z"/><path class="cls-6" d="M846.1,454.67c0,6.79,3.42,13.44,10.91,13.44,6.27,0,8.06-2.52,9.48-5.81h15.06c-1.92,6.66-7.86,17.58-24.93,17.58-17.9,0-25.67-13.38-25.67-27.64,0-17.05,8.75-29.23,26.21-29.23,18.66,0,25,13.51,25,27.07a33.09,33.09,0,0,1-.2,4.59Zm21-9.25c-.1-6.32-2.63-11.65-10-11.65s-10.11,5-10.71,11.65Z"/><path class="cls-6" d="M940.4,461.06c-1.87,9.05-8.24,18.82-24.43,18.82-16.92,0-25.62-11.71-25.62-28,0-16,9.79-28.83,26.34-28.83,18.32,0,23.41,13.15,23.71,19.3H925.71c-.93-4.43-3.44-7.52-9.31-7.52-6.88,0-10.78,6-10.78,16.56,0,11.58,4.13,16.85,10.72,16.85,5.16,0,7.94-3.06,9.28-7.14Z"/><path class="cls-6" d="M945.5,424.27h8.38V409.56h15v14.71h10.65v11.32H968.92v26.82c0,4.12,1.26,5.73,5.75,5.73a28.92,28.92,0,0,0,3.43-.17v10.35c-3,1-7.08,1-10.12,1-10.6,0-14.1-5.68-14.1-15.18V435.59H945.5Z"/><path class="cls-6" d="M1077.62,456.31c-2.91,13.5-13.09,23.33-31.22,23.33-23,0-33.8-16.24-33.8-36.83,0-19.85,11.19-37.63,34.55-37.63,19.28,0,28.62,11.32,30.39,23.42h-15.65c-1.51-5.58-5.4-11.14-15.24-11.14-12.91,0-17.89,11.61-17.89,24.78,0,12.24,4.33,25.13,18.31,25.13,10.22,0,13.44-6.84,14.81-11.06Z"/><path class="cls-6" d="M1087.49,439c0-5.4,0-10.2-.1-14.75h14.76c.19,1.22.39,6.62.39,9.54,2.4-6.21,8.19-10.75,17.44-10.8v14.36c-10.92-.28-17.44,2.66-17.44,17.56v23.69h-15Z"/><path class="cls-6" d="M1141.71,424.27c5.62,18.76,10.51,35.49,11.38,40.51h.1c1.18-5.48,4.36-17.66,10.85-40.51h15l-18.26,55.92c-5.2,15.63-9.53,20.29-22.59,20.29-1.33,0-4.44-.1-7.05-.4V488c1,.11,2.68.22,3.9.22,5.52,0,8.31-1.92,10.34-7.93l-19.77-56Z"/><path class="cls-6" d="M1197.29,462.28c1.13,4.33,4.67,6.76,10.28,6.76s7.58-2,7.58-5.28c0-3.49-2.33-4.86-10.12-6.77-17.7-4.37-20.6-9.85-20.6-17.52,0-8,5.65-16.46,22-16.46s22.06,9,22.53,16.37h-14.31c-.48-2-1.82-5.81-8.89-5.81-5,0-6.59,2.21-6.59,4.65,0,2.71,1.69,4,10.51,6.07,18.14,4.22,20.7,10.43,20.7,18.4,0,9-6.84,17.19-23.41,17.19s-23.31-8-24.51-17.6Z"/><path class="cls-6" d="M1234.46,424.27h8.37V409.56h15.05v14.71h10.65v11.32h-10.65v26.82c0,4.12,1.26,5.73,5.75,5.73a28.77,28.77,0,0,0,3.42-.17v10.35c-3,1-7.07,1-10.11,1-10.6,0-14.11-5.68-14.11-15.18V435.59h-8.37Z"/><path class="cls-6" d="M1322.3,464.58a123.87,123.87,0,0,0,.73,14h-14.37a21.93,21.93,0,0,1-.76-5.31c-2,3.05-5.67,6.57-15.28,6.57-13.1,0-18.63-8.61-18.63-17,0-12.38,9.94-18.1,25.87-18.1h7.76v-3.32c0-3.86-1.39-7.66-8.37-7.66-6.35,0-7.74,2.7-8.43,6.63h-14.31c.81-9.65,6.79-17.47,23.31-17.38,14.56.1,22.48,5.78,22.48,18.72Zm-14.67-10.7h-6.13c-9.06,0-12.43,2.77-12.43,8,0,3.93,2.42,7.25,7.83,7.25,9.56,0,10.73-6.65,10.73-13.83Z"/><path class="cls-6" d="M1335.92,478.62V402h15v76.64Z"/><path class="cls-6" d="M1367.46,442.26V424.74h15.67v17.52Zm0,36.36V461.09h15.67v17.53Z"/><path class="cls-5" d="M654.28,539.87h-23.6v-8.3h57v8.3H664v64.75h-9.75Z"/><path class="cls-5" d="M705.1,527.54v31.69c2.71-4.68,7.56-9.11,16.61-9.11,8.54,0,17.93,4.67,17.93,20.52v34h-9.15V572.17c0-9.06-3.83-14.08-11.58-14.08-9.58,0-13.81,6.33-13.81,17.42v29.11h-9.19V527.54Z"/><path class="cls-5" d="M760.84,579.67c.07,10.83,5.52,18.52,14.56,18.52,8.41,0,11.14-4.33,12.85-8.23h9.26c-2.1,6.82-7.81,15.92-22.4,15.92-16.74,0-23.57-13.61-23.57-27.31,0-15.83,8-28.45,24.16-28.45,17.18,0,22.81,13.78,22.81,25.13a41.78,41.78,0,0,1-.15,4.42Zm28.34-6.48c-.11-8.76-4.51-15.79-13.61-15.79-9.37,0-13.48,6.51-14.41,15.79Z"/><path class="cls-5" d="M838.15,531.57h9.68v30.5h38.08v-30.5h9.68v73h-9.68V570.37H847.83v34.25h-9.68Z"/><path class="cls-5" d="M958.38,577.89c0,15.34-8.79,28-25.07,28-15.25,0-24.48-11.8-24.48-27.81,0-15.72,9-28,25.08-28C948.7,550.12,958.38,561.19,958.38,577.89ZM918.3,578c0,11.68,5.83,20.19,15.4,20.19,9.74,0,15.21-8.08,15.21-20.15s-5.44-20.23-15.42-20.23S918.3,565.85,918.3,578Z"/><path class="cls-5" d="M970.37,527.54h9.19V559c2.41-4.54,7.3-8.85,17-8.85,13.36,0,21.79,11,21.79,26.8,0,16.18-8.12,29-23.19,29-8.52,0-13-3.12-15.66-8.29a65.86,65.86,0,0,1-.36,7h-8.86c.1-6,.1-11.93.1-17.88Zm38.5,49.56c0-11.49-5.25-19.18-14.48-19.18-11.3,0-15.29,7.58-15.29,20.26,0,11.09,3.54,19.94,14.85,19.94C1003.36,598.12,1008.87,590.08,1008.87,577.1Z"/><path class="cls-5" d="M1076.71,577.89c0,15.34-8.79,28-25.06,28-15.26,0-24.48-11.8-24.48-27.81,0-15.72,9-28,25.08-28C1067,550.12,1076.71,561.19,1076.71,577.89Zm-40.08.11c0,11.68,5.83,20.19,15.4,20.19,9.74,0,15.22-8.08,15.22-20.15s-5.45-20.23-15.43-20.23S1036.63,565.85,1036.63,578Z"/><path class="cls-5" d="M1097.9,576.79c4.49-5.25,16.18-17.56,23.4-25.41h11l-20,20.74,22.34,32.5H1123.8L1105.91,578l-8,7.73v18.88h-9.19V527.54h9.19Z"/><path class="cls-5" d="M1146.19,579.67c.07,10.83,5.51,18.52,14.55,18.52,8.42,0,11.15-4.33,12.85-8.23h9.26c-2.09,6.82-7.8,15.92-22.39,15.92-16.74,0-23.57-13.61-23.57-27.31,0-15.83,8-28.45,24.16-28.45,17.17,0,22.8,13.78,22.8,25.13,0,1.62,0,3-.14,4.42Zm28.34-6.48c-.11-8.76-4.51-15.79-13.61-15.79-9.37,0-13.49,6.51-14.42,15.79Z"/><path class="cls-5" d="M1195.74,564.79c0-4.62,0-9.29-.11-13.41h8.94c.25,1.57.39,7.17.36,8.75,2.12-4.58,6.47-10,16.76-10,10,0,17.79,6.1,17.79,20.26v34.24h-9.19V571.55c0-8-3.15-13.46-11.28-13.46-10,0-14.08,7.64-14.08,18.34v28.19h-9.19Z"/><path class="cls-5" d="M1347.16,567.68c0,20.09-11.27,38-34.28,38-21.51,0-33.51-16.62-33.51-37.57s12.25-37.58,34.35-37.58C1334.29,530.52,1347.16,546,1347.16,567.68Zm-57.64.1c0,15.79,8.08,29.63,23.78,29.63,17,0,23.71-14,23.71-29.59s-7.65-29-23.68-29C1296.77,538.78,1289.52,552.19,1289.52,567.78Z"/><path class="cls-5" d="M1369.49,598v27.51h-9.15V564.37c0-4.34,0-8.85-.11-13h8.94c.21,1.77.32,5,.32,8.37,2.89-5.37,8.29-9.63,17.4-9.63,12.32,0,21.26,10.32,21.26,26.52,0,19-10.26,29.24-23.15,29.24C1376.39,605.88,1371.9,602.27,1369.49,598Zm29.19-21c0-11.28-5.13-19-14.22-19-11,0-15.39,7-15.39,19.92,0,12.58,3.57,20.22,14.69,20.22C1393.49,598.12,1398.68,590.11,1398.68,577Z"/><path class="cls-5" d="M1426.32,579.67c.07,10.83,5.52,18.52,14.56,18.52,8.42,0,11.15-4.33,12.85-8.23H1463c-2.09,6.82-7.81,15.92-22.4,15.92-16.74,0-23.56-13.61-23.56-27.31,0-15.83,8-28.45,24.16-28.45,17.17,0,22.8,13.78,22.8,25.13,0,1.62,0,3-.14,4.42Zm28.34-6.48c-.1-8.76-4.51-15.79-13.61-15.79-9.36,0-13.48,6.51-14.41,15.79Z"/><path class="cls-5" d="M1475.87,564.79c0-4.62,0-9.29-.1-13.41h8.94c.24,1.57.39,7.17.36,8.75,2.12-4.58,6.46-10,16.76-10,10,0,17.78,6.1,17.78,20.26v34.24h-9.19V571.55c0-8-3.14-13.46-11.27-13.46-10,0-14.08,7.64-14.08,18.34v28.19h-9.2Z"/><path class="cls-5" d="M639.49,657.57H665.6c20.53,0,34.42,14,34.42,35.78,0,21.61-13.54,37.27-34.75,37.27H639.49Zm9.68,64.83H664.5c17.2,0,25.37-12.31,25.37-28.84,0-14.42-7.45-27.77-25.33-27.77H649.17Z"/><path class="cls-5" d="M752.68,719a83.43,83.43,0,0,0,.73,11.61h-8.79a29,29,0,0,1-.87-7c-1.86,3.55-6.11,8.23-16.44,8.23-12.55,0-17.92-8.17-17.92-16.27,0-11.88,9.34-17.32,25.16-17.32h9.08v-4.54c0-4.69-1.5-10.42-11.46-10.42-8.89,0-10.39,4.41-11.36,8.57h-8.89c.7-7.34,5.24-15.82,20.54-15.78,13,0,20.22,5.34,20.22,17.44Zm-9-14.35h-8.61c-10.62,0-16.3,2.94-16.3,10.44,0,5.54,3.8,9.57,10.36,9.57,12.82,0,14.55-8.64,14.55-18.3Z"/><path class="cls-5" d="M761,677.38h9.2V661.67h9.19v15.71h11.76v7.5H779.39v31.19c0,5.17,1.26,7.82,6.08,7.82a20.6,20.6,0,0,0,4.64-.44v6.92a24.62,24.62,0,0,1-8,1c-8.28,0-11.95-4.29-11.95-13.14V684.88H761Z"/><path class="cls-5" d="M840.77,719a81.43,81.43,0,0,0,.74,11.61h-8.8a29.54,29.54,0,0,1-.87-7c-1.86,3.55-6.11,8.23-16.44,8.23-12.55,0-17.91-8.17-17.91-16.27,0-11.88,9.33-17.32,25.16-17.32h9.08v-4.54c0-4.69-1.5-10.42-11.46-10.42-8.9,0-10.4,4.41-11.37,8.57H800c.7-7.34,5.24-15.82,20.55-15.78,13,0,20.21,5.34,20.21,17.44Zm-9-14.35h-8.62c-10.61,0-16.3,2.94-16.3,10.44,0,5.54,3.8,9.57,10.37,9.57,12.82,0,14.55-8.64,14.55-18.3Z"/><path class="cls-5" d="M894.66,657.57v73H885v-73Z"/><path class="cls-5" d="M911,690.79c0-4.62,0-9.29-.11-13.41h8.94c.25,1.57.39,7.17.36,8.75,2.12-4.58,6.47-10,16.76-10,10,0,17.79,6.1,17.79,20.26v34.24h-9.19V697.55c0-8-3.14-13.46-11.27-13.46-10,0-14.09,7.64-14.09,18.34v28.19H911Z"/><path class="cls-5" d="M970.37,653.54h9.19V665h-9.19Zm0,23.84h9.19v53.24h-9.19Z"/><path class="cls-5" d="M989,677.38h9.2V661.67h9.19v15.71h11.76v7.5h-11.76v31.19c0,5.17,1.26,7.82,6.08,7.82a20.6,20.6,0,0,0,4.64-.44v6.92a24.58,24.58,0,0,1-8,1c-8.28,0-12-4.29-12-13.14V684.88H989Z"/><path class="cls-5" d="M1028.85,653.54H1038V665h-9.19Zm0,23.84H1038v53.24h-9.19Z"/><path class="cls-5" d="M1092.77,719a83.43,83.43,0,0,0,.73,11.61h-8.79a29,29,0,0,1-.87-7c-1.86,3.55-6.11,8.23-16.44,8.23-12.56,0-17.92-8.17-17.92-16.27,0-11.88,9.34-17.32,25.16-17.32h9.08v-4.54c0-4.69-1.5-10.42-11.46-10.42-8.89,0-10.39,4.41-11.36,8.57H1052c.71-7.34,5.24-15.82,20.55-15.78,13,0,20.22,5.34,20.22,17.44Zm-9-14.35h-8.62c-10.61,0-16.29,2.94-16.29,10.44,0,5.54,3.79,9.57,10.36,9.57,12.82,0,14.55-8.64,14.55-18.3Z"/><path class="cls-5" d="M1101.09,677.38h9.2V661.67h9.19v15.71h11.75v7.5h-11.75v31.19c0,5.17,1.26,7.82,6.08,7.82a20.6,20.6,0,0,0,4.64-.44v6.92a24.62,24.62,0,0,1-8,1c-8.28,0-12-4.29-12-13.14V684.88h-9.2Z"/><path class="cls-5" d="M1141,653.54h9.19V665H1141Zm0,23.84h9.19v53.24H1141Z"/><path class="cls-5" d="M1169.54,677.38c7.17,21.77,12.42,38,14,44.69h.1c1.31-5.93,7-21.87,15-44.69H1208l-19.58,53.24h-10.13l-18.58-53.24Z"/><path class="cls-5" d="M1222.2,705.67c.07,10.83,5.52,18.52,14.56,18.52,8.42,0,11.14-4.33,12.85-8.23h9.26c-2.1,6.82-7.81,15.92-22.4,15.92-16.74,0-23.56-13.61-23.56-27.31,0-15.83,8-28.45,24.16-28.45,17.17,0,22.8,13.78,22.8,25.13a41.78,41.78,0,0,1-.15,4.42Zm28.34-6.48c-.11-8.76-4.51-15.79-13.61-15.79-9.36,0-13.48,6.51-14.41,15.79Z"/></svg>